<svg xmlns="http://www.w3.org/2000/svg" viewBox="0 0 193.207 78.785">
  <defs>
    <style>
      .cls-1 {
        fill: #eb1b2a;
      }

      .cls-2 {
        fill: #fff;
      }

      .cls-3 {
        fill: #151418;
      }
    </style>
  </defs>
  <g id="logo-gava-curt" transform="translate(0 46.332)">
    <g id="g12" transform="translate(0 -46.332)">
      <path id="path14" class="cls-1" d="M62.821,1.01A31.411,31.411,0,1,1,0,1.074V-46.332H62.821V1.01" transform="translate(0 46.332)"/>
      <path id="path16" class="cls-2" d="M13.794-37.349l8.031,8.03H26.59l-5.049-8.03H13.794" transform="translate(9.711 52.655)"/>
      <path id="path18" class="cls-2" d="M25.543-7.528h7.6A7.819,7.819,0,0,1,25.117-.9c-5.7,0-9.286-5.1-9.286-10.8,0-6.756,3.886-10.81,8.865-10.81,4.437,0,6.716,1.857,7.854,4.648l6.626-.423c-1.185-3.378-4.056-9.878-14.48-9.878-9.412,0-15.452,7.936-15.452,16.463S15.285,4.759,24.7,4.759c8.742,0,15.238-5.909,15.492-17.688H25.543v5.4" transform="translate(6.508 59.118)"/>
      <path id="path20" class="cls-3" d="M54.62-27.108H50.154l2.21-7.342Zm-9.361,5.762h3.155l.923-3.106h6.09l.926,3.106h3.161L54.145-37.379H50.624Zm19.006-11.4h-2.75v11.717c0,.809-.856.945-1.3.945H60.1v2.518h.364c1.886,0,3.8-.4,3.8-2.538Zm-2.75-1.844h2.75v-2.791h-2.75Zm15.707,1.844H74.464v6.13a2.573,2.573,0,0,1-.678,2.075,2.573,2.573,0,0,1-2.029.807c-1.4,0-2.037-.672-2.037-2.252v-6.76H66.976V-25.2c0,3.316,2.232,4.123,4.171,4.123a4.032,4.032,0,0,0,3.277-1.4l.04,1.123h2.758Zm2.247,11.4h2.755v-6.016c0-2.092,1.1-2.986,2.439-2.986a1.808,1.808,0,0,1,1.431.573,1.808,1.808,0,0,1,.469,1.468v6.96h2.75v-7.791c0-2.5-1.218-3.869-3.925-3.869a3.989,3.989,0,0,0-3.117,1.392l-.043-1.129H79.47Zm13.2-11.4H91v1.985h1.673v6.8c0,1.732.766,2.744,3.017,2.744a10.879,10.879,0,0,0,2.192-.261v-2.259a11.33,11.33,0,0,1-1.218.138c-1.061,0-1.242-.5-1.242-1.393v-5.771h2.46v-1.985h-2.46v-4.029h-2.75Zm16.667,3.47c0-3.236-2.46-3.733-4.921-3.733-2.5,0-4.877,1.032-4.877,3.712l2.756.115c0-1.238.522-1.716,2.121-1.716,1.192,0,2.165.316,2.165,1.44v.34a27.393,27.393,0,0,1-2.973.678l-1.154.231c-1.7.328-3.476,1.321-3.476,3.55a3.588,3.588,0,0,0,1.154,2.642,3.588,3.588,0,0,0,2.726.94,5.778,5.778,0,0,0,3.723-1.3,2.118,2.118,0,0,0,.275,1.031h2.907a3.269,3.269,0,0,1-.426-1.908Zm-2.756,3.858c0,1.46-1.652,2.095-2.929,2.095-1,0-1.79-.565-1.79-1.424,0-1.083.867-1.374,1.9-1.578l1.513-.312a4.867,4.867,0,0,0,1.306-.408Zm5.094,4.069h2.756v-6.016c0-1.613.923-3.124,2.417-3.124,1.329,0,1.913.923,1.913,2.23v6.909h2.756v-6.016c0-1.613.925-3.124,2.454-3.124,1.284,0,1.874.923,1.874,2.23v6.909H128.6V-29.36c0-2.458-1.507-3.646-3.989-3.646a4.185,4.185,0,0,0-3.522,1.709,3.469,3.469,0,0,0-3.361-1.709,4.3,4.3,0,0,0-3.291,1.392v-1.129h-2.756Zm30-5.041c0-4.081-1.667-6.619-5.483-6.619-3.7,0-5.837,2.565-5.837,5.962s2.135,5.971,5.837,5.971a6.3,6.3,0,0,0,5.62-2.792l-2.324-1.349a3.71,3.71,0,0,1-3.3,1.621,2.893,2.893,0,0,1-2.951-2.794Zm-8.431-2.11a2.936,2.936,0,0,1,2.951-2.257,2.581,2.581,0,0,1,2.6,2.257Zm9.92,7.155h2.756v-6.016c0-2.092,1.1-2.986,2.432-2.986a1.8,1.8,0,0,1,1.434.57,1.8,1.8,0,0,1,.466,1.471v6.96H153v-7.791c0-2.5-1.218-3.869-3.932-3.869a3.957,3.957,0,0,0-3.108,1.392l-.045-1.129h-2.756Zm12.973-11.4h-1.675v1.985h1.675v6.8c0,1.732.763,2.744,3.022,2.744a10.8,10.8,0,0,0,2.186-.261v-2.259a11.428,11.428,0,0,1-1.211.138c-1.068,0-1.241-.5-1.241-1.393v-5.771h2.452v-1.985h-2.452v-4.029h-2.756v4.029" transform="translate(31.862 52.635)"/>
      <path id="path22" class="cls-3" d="M54.7-7.009h2.76V-23.043H54.7v5.609a4.617,4.617,0,0,0-3.246-1.245c-2.924,0-4.961,2.686-4.961,5.967s2.037,5.97,4.961,5.97a3.768,3.768,0,0,0,3.208-1.371ZM52.089-16.15c2.074,0,2.685,1.8,2.711,3.437-.027,1.652-.637,3.456-2.711,3.456s-2.683-1.8-2.7-3.456c.022-1.638.633-3.437,2.705-3.437m71.6,5.065c0,1.461-1.644,2.093-2.935,2.093-.989,0-1.775-.558-1.775-1.416,0-1.08.852-1.378,1.89-1.582l1.515-.314a4.9,4.9,0,0,0,1.3-.408Zm2.75-3.854c0-3.244-2.461-3.741-4.92-3.741-2.5,0-4.87,1.038-4.87,3.719l2.756.113c0-1.243.519-1.71,2.114-1.71,1.2,0,2.17.315,2.17,1.44v.341a30.105,30.105,0,0,1-2.979.673l-1.154.224c-1.689.337-3.47,1.33-3.47,3.564a3.585,3.585,0,0,0,1.156,2.638,3.585,3.585,0,0,0,2.724.936,5.719,5.719,0,0,0,3.723-1.309,2.094,2.094,0,0,0,.275,1.043h2.907a3.3,3.3,0,0,1-.432-1.914Zm-5.187-8.1H118.23l3.2,3.241h1.87ZM109.09-7.009h2.893l3.766-11.4h-2.914l-2.281,7.881L108.238-18.4h-2.915Zm-7.757-4.076c0,1.461-1.644,2.093-2.929,2.093-1,0-1.79-.558-1.79-1.416,0-1.08.867-1.378,1.9-1.582l1.506-.314a4.8,4.8,0,0,0,1.313-.408Zm2.756-3.854c0-3.244-2.46-3.741-4.918-3.741-2.506,0-4.88,1.038-4.88,3.719l2.758.113c0-1.243.519-1.71,2.121-1.71,1.2,0,2.163.315,2.163,1.44v.341a29.936,29.936,0,0,1-2.973.673l-1.154.224c-1.7.337-3.47,1.33-3.47,3.564A3.582,3.582,0,0,0,94.89-7.68a3.582,3.582,0,0,0,2.72.937,5.719,5.719,0,0,0,3.723-1.309,2.16,2.16,0,0,0,.275,1.043h2.907a3.32,3.32,0,0,1-.426-1.914Zm-12.2-3.809a6.928,6.928,0,0,0-6.838-4.7c-4.806,0-7.7,3.9-7.7,8.419S79.909-6.6,85.05-6.6a5.878,5.878,0,0,0,4.213-1.784v1.376h2.625V-15.77H85.166v2.659h3.967A3.885,3.885,0,0,1,87.867-10.4,3.885,3.885,0,0,1,85.05-9.393c-3.2,0-4.539-2.843-4.539-5.636s1.336-5.627,4.539-5.627a3.9,3.9,0,0,1,4.018,3.062Zm-30.01,4.577a2.942,2.942,0,0,1,2.96-2.25,2.583,2.583,0,0,1,2.594,2.25Zm8.438,2.118c0-4.08-1.667-6.627-5.478-6.627-3.7,0-5.844,2.569-5.844,5.967s2.143,5.97,5.844,5.97a6.3,6.3,0,0,0,5.616-2.789l-2.328-1.351a3.7,3.7,0,0,1-3.288,1.626,2.906,2.906,0,0,1-2.96-2.8h8.438" transform="translate(32.732 62.442)"/>
    </g>
  </g>
</svg>
