<svg xmlns="http://www.w3.org/2000/svg" role="img" aria-labelledby="logo-01" width="1242.5" height="129" viewBox="0 0 1242.5 129" style="enable-background:new 0 0 1242.5 129;">
	  <title id="logo-01">Logotip de Colectic</title>
        <style type="text/css">
        	.st0{fill:#5555F6;}
        	.st1{fill:#FFFFFF;}
        </style>
          <g>
          	<g>
          		<path class="st0" d="M0,0v129h1242.5V0H0z M91.7,96.4c-3.4,5-7.9,8.9-13.5,11.7c-5.7,2.7-12.4,4.1-20.2,4.1c-8.4,0-15.7-2-21.9-6
          			c-6.1-4-10.9-9.6-14.2-16.9c-3.4-7.3-5-15.8-5-25.5s1.7-18.4,5.1-25.6s8.2-12.8,14.5-16.8c6.3-4,13.7-6,22.3-6
          			c6.7,0,12.9,1.3,18.5,3.9c5.6,2.6,10.3,6.3,13.9,11.3c3.6,4.9,5.6,10.9,6,18H73.1c-0.5-4.6-1.9-8.2-4.3-10.9
          			c-2.4-2.7-5.7-4.1-10-4.1c-3.6,0-6.8,1.1-9.7,3.4c-2.9,2.3-5.2,5.7-6.9,10.2c-1.7,4.5-2.5,10.1-2.5,16.7c0,6.6,0.8,12,2.4,16.6
          			c1.6,4.5,3.8,7.9,6.5,10.2c2.7,2.3,5.8,3.5,9.3,3.5c3,0,5.5-0.6,7.7-1.8c2.2-1.2,4-3,5.4-5.3c1.4-2.3,2.2-5.1,2.5-8.4h24.2
          			C97.1,85.4,95.1,91.4,91.7,96.4L91.7,96.4z M234.5,89.7c-3.5,7.2-8.3,12.8-14.5,16.7c-6.2,3.9-13.4,5.8-21.6,5.8
          			s-15.5-1.9-21.7-5.8c-6.2-3.9-11.1-9.4-14.5-16.7c-3.4-7.2-5.2-15.9-5.2-25.9s1.7-18.8,5.2-26c3.5-7.2,8.3-12.8,14.5-16.6
          			c6.2-3.8,13.5-5.8,21.7-5.8s15.5,1.9,21.6,5.8c6.2,3.8,11,9.4,14.5,16.5s5.2,15.9,5.2,26.1S238,82.4,234.5,89.7z M374.5,110.6
          			h-67.6V17h22.2v75.5h45.5V110.6z M516.8,110.6h-70V17h69.5v18.1h-47.3v18.1h30.5v18.1h-30.5v21.2h47.9V110.6z M656.4,96.4
          			c-3.4,5-7.9,8.9-13.5,11.7c-5.7,2.7-12.4,4.1-20.2,4.1c-8.4,0-15.7-2-21.8-6c-6.1-4-10.9-9.6-14.2-16.9c-3.4-7.3-5-15.8-5-25.5
          			c0-9.8,1.7-18.4,5.1-25.6s8.2-12.8,14.5-16.8c6.3-4,13.7-6,22.3-6c6.7,0,12.9,1.3,18.5,3.9c5.7,2.6,10.3,6.3,13.9,11.3
          			c3.6,4.9,5.6,10.9,6,18h-24.2c-0.5-4.6-1.9-8.2-4.3-10.9c-2.4-2.7-5.7-4.1-10-4.1c-3.6,0-6.8,1.1-9.8,3.4
          			c-2.9,2.3-5.2,5.7-6.9,10.2c-1.7,4.5-2.5,10.1-2.5,16.7c0,6.5,0.8,12,2.4,16.6s3.8,7.9,6.5,10.2c2.7,2.3,5.8,3.5,9.3,3.5
          			c3,0,5.5-0.6,7.7-1.8c2.2-1.2,4-3,5.4-5.3c1.4-2.3,2.2-5.1,2.5-8.4h24.2C661.8,85.4,659.8,91.4,656.4,96.4L656.4,96.4z
          			 M801.4,35.1H774v75.5h-22.2V35.1h-27.4V17h77V35.1z M936.7,35.1h-21.5v57.4h21.5v18.1h-65.2V92.5H893V35.1h-21.5V17h65.2V35.1z
          			 M1079.9,96.4c-3.4,5-7.9,8.9-13.5,11.7c-5.7,2.7-12.4,4.1-20.2,4.1c-8.4,0-15.7-2-21.8-6c-6.1-4-10.9-9.6-14.3-16.9
          			c-3.4-7.3-5-15.8-5-25.5s1.7-18.4,5.1-25.6s8.2-12.8,14.5-16.8c6.3-4,13.7-6,22.3-6c6.7,0,12.9,1.3,18.6,3.9
          			c5.7,2.6,10.3,6.3,13.9,11.3c3.6,4.9,5.6,10.9,6,18h-24.2c-0.4-4.6-1.9-8.2-4.3-10.9c-2.4-2.7-5.7-4.1-9.9-4.1
          			c-3.6,0-6.8,1.1-9.8,3.4c-2.9,2.3-5.2,5.7-6.9,10.2c-1.7,4.5-2.5,10.1-2.5,16.7c0,6.5,0.8,12,2.4,16.6s3.8,7.9,6.5,10.2
          			c2.7,2.3,5.8,3.5,9.3,3.5c3,0,5.5-0.6,7.7-1.8c2.2-1.2,4-3,5.4-5.3c1.4-2.3,2.2-5.1,2.5-8.4h24.2
          			C1085.3,85.4,1083.3,91.4,1079.9,96.4L1079.9,96.4z M1223,110.8h-73.7V92.4h73.7V110.8z"/>
          		<path class="st0" d="M207.8,37c-2.8-2.3-5.9-3.5-9.4-3.5c-3.5,0-6.7,1.2-9.5,3.5s-5,5.8-6.7,10.3s-2.4,10-2.4,16.4
          			s0.8,11.9,2.4,16.4c1.6,4.5,3.8,7.9,6.7,10.3c2.8,2.4,6,3.6,9.5,3.6s6.6-1.2,9.4-3.6c2.8-2.4,5-5.8,6.6-10.3
          			c1.6-4.5,2.4-10,2.4-16.4c0-6.5-0.8-12-2.4-16.5C212.8,42.7,210.6,39.3,207.8,37z"/>
          	</g>
          </g>
          <g>
          	<g>
          		<polygon class="st1" points="306.9,17 306.9,110.6 374.5,110.6 374.5,92.5 329.1,92.5 329.1,17 		"/>
          		<path class="st1" d="M176.7,106.4c6.2,3.9,13.5,5.8,21.7,5.8s15.5-1.9,21.6-5.8c6.2-3.9,11-9.5,14.5-16.7s5.2-15.7,5.2-25.9
          			s-1.7-18.9-5.2-26.1s-8.3-12.7-14.5-16.5c-6.2-3.8-13.4-5.8-21.6-5.8s-15.5,1.9-21.7,5.8c-6.2,3.8-11.1,9.4-14.5,16.6
          			c-3.4,7.2-5.2,16-5.2,26s1.7,18.6,5.2,25.9C165.6,96.9,170.5,102.5,176.7,106.4z M182.3,47.4c1.6-4.5,3.8-8,6.7-10.3
          			s6-3.5,9.5-3.5c3.5,0,6.6,1.2,9.4,3.5c2.8,2.3,5,5.7,6.6,10.2c1.6,4.5,2.4,10,2.4,16.5c0,6.4-0.8,11.9-2.4,16.4
          			c-1.6,4.5-3.8,7.9-6.6,10.3c-2.8,2.4-5.9,3.6-9.4,3.6s-6.7-1.2-9.5-3.6c-2.8-2.4-5-5.8-6.7-10.3c-1.6-4.5-2.4-10-2.4-16.4
          			S180.6,51.9,182.3,47.4z"/>
          		<rect x="1242.5" y="0" class="st1" width="0" height="129"/>
          		<polygon class="st1" points="516.2,35.1 516.2,17 446.7,17 446.7,110.6 516.8,110.6 516.8,92.5 468.9,92.5 468.9,71.3 499.4,71.3 
          			499.4,53.2 468.9,53.2 468.9,35.1 		"/>
          		<rect y="0" class="st1" width="0" height="129"/>
          		<path class="st1" d="M49.1,36.9c2.9-2.3,6.2-3.4,9.8-3.4c4.2,0,7.5,1.4,10,4.1c2.4,2.7,3.9,6.4,4.3,10.9h24.2
          			c-0.4-7.1-2.3-13-6-18c-3.6-4.9-8.3-8.7-13.9-11.3c-5.6-2.6-11.8-3.9-18.5-3.9c-8.6,0-16.1,2-22.3,6c-6.3,4-11.1,9.6-14.5,16.8
          			S16.9,54,16.9,63.8s1.7,18.3,5,25.5c3.4,7.3,8.1,12.9,14.2,16.9c6.1,4,13.4,6,21.9,6c7.8,0,14.5-1.4,20.2-4.1
          			c5.6-2.7,10.1-6.6,13.5-11.7l0,0c3.4-5,5.4-11,6.1-17.9H73.6c-0.3,3.3-1.1,6.1-2.5,8.4c-1.4,2.3-3.2,4.1-5.4,5.3
          			c-2.2,1.2-4.8,1.8-7.7,1.8c-3.5,0-6.6-1.2-9.3-3.5s-4.9-5.7-6.5-10.2c-1.6-4.5-2.4-9.9-2.4-16.6c0-6.6,0.8-12.2,2.5-16.7
          			C43.9,42.6,46.2,39.2,49.1,36.9z"/>
          		<path class="st1" d="M1037.3,36.9c2.9-2.3,6.2-3.4,9.8-3.4c4.2,0,7.5,1.4,9.9,4.1c2.4,2.7,3.9,6.4,4.3,10.9h24.2
          			c-0.4-7.1-2.3-13-6-18c-3.6-4.9-8.3-8.7-13.9-11.3c-5.6-2.6-11.8-3.9-18.6-3.9c-8.6,0-16.1,2-22.3,6c-6.3,4-11.1,9.6-14.5,16.8
          			s-5.1,15.9-5.1,25.6s1.7,18.3,5,25.5c3.4,7.3,8.1,12.9,14.3,16.9c6.1,4,13.4,6,21.8,6c7.8,0,14.5-1.4,20.2-4.1
          			c5.6-2.7,10.1-6.6,13.5-11.7h0c3.4-5,5.4-11,6.1-17.9h-24.2c-0.3,3.3-1.1,6.1-2.5,8.4c-1.4,2.3-3.2,4.1-5.4,5.3
          			c-2.2,1.2-4.8,1.8-7.7,1.8c-3.5,0-6.6-1.2-9.3-3.5s-4.9-5.7-6.5-10.2c-1.6-4.5-2.4-10-2.4-16.6c0-6.6,0.8-12.2,2.5-16.7
          			C1032.1,42.6,1034.4,39.2,1037.3,36.9z"/>
          		<path class="st1" d="M613.8,36.9c2.9-2.3,6.2-3.4,9.8-3.4c4.2,0,7.5,1.4,10,4.1c2.4,2.7,3.8,6.4,4.3,10.9H662
          			c-0.4-7.1-2.3-13-6-18c-3.6-4.9-8.3-8.7-13.9-11.3c-5.6-2.6-11.8-3.9-18.5-3.9c-8.6,0-16,2-22.3,6c-6.3,4-11.1,9.6-14.5,16.8
          			s-5.1,15.8-5.1,25.6c0,9.8,1.7,18.3,5,25.5c3.4,7.3,8.1,12.9,14.2,16.9c6.1,4,13.4,6,21.8,6c7.8,0,14.5-1.4,20.2-4.1
          			c5.6-2.7,10.2-6.6,13.5-11.7h0c3.4-5,5.4-11,6.1-17.9h-24.2c-0.3,3.3-1.1,6.1-2.5,8.4c-1.4,2.3-3.2,4.1-5.4,5.3
          			c-2.2,1.2-4.8,1.8-7.7,1.8c-3.5,0-6.6-1.2-9.3-3.5c-2.7-2.3-4.9-5.7-6.5-10.2s-2.4-10-2.4-16.6c0-6.6,0.8-12.2,2.5-16.7
          			C608.6,42.6,610.9,39.2,613.8,36.9z"/>
          		<rect x="1149.3" y="92.4" class="st1" width="73.7" height="18.4"/>
          		<polygon class="st1" points="774,110.6 774,35.1 801.4,35.1 801.4,17 724.4,17 724.4,35.1 751.8,35.1 751.8,110.6 		"/>
          		<polygon class="st1" points="871.5,92.5 871.5,110.6 936.7,110.6 936.7,92.5 915.2,92.5 915.2,35.1 936.7,35.1 936.7,17 871.5,17 
          			871.5,35.1 893,35.1 893,92.5 		"/>
          	</g>
          </g>
      </svg>
